<svg xmlns="http://www.w3.org/2000/svg" width="960" height="600" viewBox="0 0 960 600">
  <defs>
    <linearGradient id="bg" x1="0" y1="0" x2="1" y2="1"><stop offset="0" stop-color="#0b1324"/><stop offset="1" stop-color="#284b63"/></linearGradient>
    <radialGradient id="glow" cx="72%" cy="48%" r="55%"><stop offset="0" stop-color="#f43f5e" stop-opacity=".42"/><stop offset=".45" stop-color="#f43f5e" stop-opacity=".12"/><stop offset="1" stop-color="#f43f5e" stop-opacity="0"/></radialGradient>
    <filter id="blur"><feGaussianBlur stdDeviation="22"/></filter>
    <style>
      .label{font:700 18px Inter,'Noto Sans SC','Microsoft YaHei',Arial,sans-serif;letter-spacing:.12em;text-transform:uppercase;fill:#fbbf24}
      .title{font:800 48px Inter,'Noto Sans SC','Microsoft YaHei',Arial,sans-serif;fill:#fff}
      .sub{font:500 20px Inter,'Noto Sans SC','Microsoft YaHei',Arial,sans-serif;fill:rgba(255,255,255,.66)}
      .num{font:800 92px Inter,'Noto Sans SC','Microsoft YaHei',Arial,sans-serif;fill:rgba(255,255,255,.08)}
    </style>
  </defs>
  <rect width="960" height="600" fill="url(#bg)"/>
  <rect width="960" height="600" fill="url(#glow)"/>
  <circle cx="773" cy="153" r="170" fill="#f43f5e" opacity=".14" filter="url(#blur)"/>
  <circle cx="93" cy="483" r="130" fill="#fbbf24" opacity=".08" filter="url(#blur)"/>
  <text x="60" y="112" class="label">Website System</text>
  <text x="66" y="190" class="title">AI 智能建站</text>
  <text x="66" y="390" class="sub">AI 建站 · SEO · 广告 · 内容 · 数据增长</text>
  <text x="62" y="540" class="num">93</text>
  <g opacity=".18" stroke="#fbbf24" stroke-width="1"><path d="M120 80v420"/><path d="M198 80v420"/><path d="M276 80v420"/><path d="M354 80v420"/><path d="M432 80v420"/><path d="M510 80v420"/><path d="M588 80v420"/><path d="M666 80v420"/><path d="M744 80v420"/><path d="M90 90h720"/><path d="M90 164h720"/><path d="M90 238h720"/><path d="M90 312h720"/><path d="M90 386h720"/><path d="M90 460h720"/></g><g opacity=".9"><circle cx="267" cy="97" r="5" fill="#f43f5e"/><circle cx="267" cy="97" r="18" fill="none" stroke="#fbbf24" opacity=".16"/><circle cx="258" cy="-9" r="6" fill="#fbbf24"/><circle cx="258" cy="-9" r="19" fill="none" stroke="#fbbf24" opacity=".16"/><circle cx="389" cy="63" r="7" fill="#f43f5e"/><circle cx="389" cy="63" r="20" fill="none" stroke="#fbbf24" opacity=".16"/><circle cx="329" cy="99" r="5" fill="#fbbf24"/><circle cx="329" cy="99" r="21" fill="none" stroke="#fbbf24" opacity=".16"/><circle cx="434" cy="-8" r="6" fill="#f43f5e"/><circle cx="434" cy="-8" r="18" fill="none" stroke="#fbbf24" opacity=".16"/><circle cx="492" cy="-62" r="7" fill="#fbbf24"/><circle cx="492" cy="-62" r="19" fill="none" stroke="#fbbf24" opacity=".16"/><circle cx="526" cy="36" r="5" fill="#f43f5e"/><circle cx="526" cy="36" r="20" fill="none" stroke="#fbbf24" opacity=".16"/><circle cx="548" cy="-68" r="6" fill="#fbbf24"/><circle cx="548" cy="-68" r="21" fill="none" stroke="#fbbf24" opacity=".16"/><path d="M510 310C575 190 688 186 780 112" fill="none" stroke="#f43f5e" stroke-width="5" stroke-linecap="round"/><path d="M510 372c82-92 170-92 280-14" fill="none" stroke="#fbbf24" stroke-width="4" opacity=".55"/><rect x="500" y="170" width="280" height="160" rx="24" fill="rgba(255,255,255,.08)" stroke="#fbbf24" stroke-width="2"/><path d="M540 250h78M540 286h146M540 214h186" stroke="#fbbf24" stroke-width="10" stroke-linecap="round" opacity=".55"/></g>
</svg>