<svg xmlns="http://www.w3.org/2000/svg" width="960" height="600" viewBox="0 0 960 600">
  <defs>
    <linearGradient id="bg" x1="0" y1="0" x2="1" y2="1"><stop offset="0" stop-color="#071a2f"/><stop offset="1" stop-color="#4a1d3f"/></linearGradient>
    <radialGradient id="glow" cx="72%" cy="48%" r="55%"><stop offset="0" stop-color="#f97316" stop-opacity=".42"/><stop offset=".45" stop-color="#f97316" stop-opacity=".12"/><stop offset="1" stop-color="#f97316" stop-opacity="0"/></radialGradient>
    <filter id="blur"><feGaussianBlur stdDeviation="22"/></filter>
    <style>
      .label{font:700 18px Inter,'Noto Sans SC','Microsoft YaHei',Arial,sans-serif;letter-spacing:.12em;text-transform:uppercase;fill:#facc15}
      .title{font:800 48px Inter,'Noto Sans SC','Microsoft YaHei',Arial,sans-serif;fill:#fff}
      .sub{font:500 20px Inter,'Noto Sans SC','Microsoft YaHei',Arial,sans-serif;fill:rgba(255,255,255,.66)}
      .num{font:800 92px Inter,'Noto Sans SC','Microsoft YaHei',Arial,sans-serif;fill:rgba(255,255,255,.08)}
    </style>
  </defs>
  <rect width="960" height="600" fill="url(#bg)"/>
  <rect width="960" height="600" fill="url(#glow)"/>
  <circle cx="787" cy="67" r="170" fill="#f97316" opacity=".14" filter="url(#blur)"/>
  <circle cx="107" cy="497" r="130" fill="#facc15" opacity=".08" filter="url(#blur)"/>
  <text x="60" y="112" class="label">Customer System</text>
  <text x="66" y="190" class="title">AI 客服部署案例</text>
  <text x="66" y="390" class="sub">AI 建站 · SEO · 广告 · 内容 · 数据增长</text>
  <text x="62" y="540" class="num">07</text>
  <g opacity=".18" stroke="#facc15" stroke-width="1"><path d="M120 80v420"/><path d="M198 80v420"/><path d="M276 80v420"/><path d="M354 80v420"/><path d="M432 80v420"/><path d="M510 80v420"/><path d="M588 80v420"/><path d="M666 80v420"/><path d="M744 80v420"/><path d="M90 90h720"/><path d="M90 164h720"/><path d="M90 238h720"/><path d="M90 312h720"/><path d="M90 386h720"/><path d="M90 460h720"/></g><g transform="translate(500 150)"><rect width="300" height="190" rx="28" fill="rgba(255,255,255,.08)" stroke="#facc15" stroke-width="2"/><path d="M64 70h170M64 112h120M64 154h80" stroke="#facc15" stroke-width="12" stroke-linecap="round"/><path d="M150 190l-58 58v-58" fill="rgba(255,255,255,.08)" stroke="#facc15" stroke-width="2"/><circle cx="242" cy="62" r="42" fill="#f97316" opacity=".22"/><path d="M226 62h32M242 46v32" stroke="#f97316" stroke-width="8" stroke-linecap="round"/></g>
</svg>