<svg xmlns="http://www.w3.org/2000/svg" width="960" height="600" viewBox="0 0 960 600">
  <defs>
    <linearGradient id="bg" x1="0" y1="0" x2="1" y2="1"><stop offset="0" stop-color="#0b1324"/><stop offset="1" stop-color="#284b63"/></linearGradient>
    <radialGradient id="glow" cx="72%" cy="48%" r="55%"><stop offset="0" stop-color="#f43f5e" stop-opacity=".42"/><stop offset=".45" stop-color="#f43f5e" stop-opacity=".12"/><stop offset="1" stop-color="#f43f5e" stop-opacity="0"/></radialGradient>
    <filter id="blur"><feGaussianBlur stdDeviation="22"/></filter>
    <style>
      .label{font:700 18px Inter,'Noto Sans SC','Microsoft YaHei',Arial,sans-serif;letter-spacing:.12em;text-transform:uppercase;fill:#fbbf24}
      .title{font:800 48px Inter,'Noto Sans SC','Microsoft YaHei',Arial,sans-serif;fill:#fff}
      .sub{font:500 20px Inter,'Noto Sans SC','Microsoft YaHei',Arial,sans-serif;fill:rgba(255,255,255,.66)}
      .num{font:800 92px Inter,'Noto Sans SC','Microsoft YaHei',Arial,sans-serif;fill:rgba(255,255,255,.08)}
    </style>
  </defs>
  <rect width="960" height="600" fill="url(#bg)"/>
  <rect width="960" height="600" fill="url(#glow)"/>
  <circle cx="733" cy="93" r="170" fill="#f43f5e" opacity=".14" filter="url(#blur)"/>
  <circle cx="173" cy="483" r="130" fill="#fbbf24" opacity=".08" filter="url(#blur)"/>
  <text x="60" y="112" class="label">Search Growth</text>
  <text x="66" y="190" class="title">B2B 工厂 SEO 增长案</text><text x="66" y="246" class="title">例</text>
  <text x="66" y="390" class="sub">AI 建站 · SEO · 广告 · 内容 · 数据增长</text>
  <text x="62" y="540" class="num">33</text>
  <g opacity=".18" stroke="#fbbf24" stroke-width="1"><path d="M120 80v420"/><path d="M198 80v420"/><path d="M276 80v420"/><path d="M354 80v420"/><path d="M432 80v420"/><path d="M510 80v420"/><path d="M588 80v420"/><path d="M666 80v420"/><path d="M744 80v420"/><path d="M90 90h720"/><path d="M90 164h720"/><path d="M90 238h720"/><path d="M90 312h720"/><path d="M90 386h720"/><path d="M90 460h720"/></g><g transform="translate(502 214)"><circle cx="72" cy="72" r="58" fill="none" stroke="#fbbf24" stroke-width="12" opacity=".85"/><path d="M114 114l80 80" stroke="#f43f5e" stroke-width="18" stroke-linecap="round"/><path d="M-10 170h220" stroke="#fbbf24" opacity=".25"/><path d="M6 136l42-42 42 24 58-76" fill="none" stroke="#f43f5e" stroke-width="9" stroke-linecap="round" stroke-linejoin="round"/></g>
</svg>