<svg xmlns="http://www.w3.org/2000/svg" width="960" height="600" viewBox="0 0 960 600">
  <defs>
    <linearGradient id="bg" x1="0" y1="0" x2="1" y2="1"><stop offset="0" stop-color="#111827"/><stop offset="1" stop-color="#3b255f"/></linearGradient>
    <radialGradient id="glow" cx="72%" cy="48%" r="55%"><stop offset="0" stop-color="#8b5cf6" stop-opacity=".42"/><stop offset=".45" stop-color="#8b5cf6" stop-opacity=".12"/><stop offset="1" stop-color="#8b5cf6" stop-opacity="0"/></radialGradient>
    <filter id="blur"><feGaussianBlur stdDeviation="22"/></filter>
    <style>
      .label{font:700 18px Inter,'Noto Sans SC','Microsoft YaHei',Arial,sans-serif;letter-spacing:.12em;text-transform:uppercase;fill:#22d3ee}
      .title{font:800 48px Inter,'Noto Sans SC','Microsoft YaHei',Arial,sans-serif;fill:#fff}
      .sub{font:500 20px Inter,'Noto Sans SC','Microsoft YaHei',Arial,sans-serif;fill:rgba(255,255,255,.66)}
      .num{font:800 92px Inter,'Noto Sans SC','Microsoft YaHei',Arial,sans-serif;fill:rgba(255,255,255,.08)}
    </style>
  </defs>
  <rect width="960" height="600" fill="url(#bg)"/>
  <rect width="960" height="600" fill="url(#glow)"/>
  <circle cx="794" cy="94" r="170" fill="#8b5cf6" opacity=".14" filter="url(#blur)"/>
  <circle cx="194" cy="504" r="130" fill="#22d3ee" opacity=".08" filter="url(#blur)"/>
  <text x="60" y="112" class="label">Ad Conversion</text>
  <text x="66" y="190" class="title">Facebook / Instagra</text><text x="66" y="246" class="title">m 投流</text>
  <text x="66" y="390" class="sub">AI 建站 · SEO · 广告 · 内容 · 数据增长</text>
  <text x="62" y="540" class="num">34</text>
  <g opacity=".18" stroke="#22d3ee" stroke-width="1"><path d="M120 80v420"/><path d="M198 80v420"/><path d="M276 80v420"/><path d="M354 80v420"/><path d="M432 80v420"/><path d="M510 80v420"/><path d="M588 80v420"/><path d="M666 80v420"/><path d="M744 80v420"/><path d="M90 90h720"/><path d="M90 164h720"/><path d="M90 238h720"/><path d="M90 312h720"/><path d="M90 386h720"/><path d="M90 460h720"/></g><g transform="translate(510 132)"><path d="M42 172l190-82v164L42 172Z" fill="rgba(255,255,255,.08)" stroke="#22d3ee" stroke-width="3"/><path d="M232 90v164" stroke="#8b5cf6" stroke-width="14" stroke-linecap="round"/><rect x="48" y="190" width="86" height="96" rx="16" fill="rgba(255,255,255,.1)" stroke="#22d3ee"/><path d="M68 236h46" stroke="#8b5cf6" stroke-width="10" stroke-linecap="round"/><circle cx="292" cy="172" r="44" fill="#8b5cf6" opacity=".18"/></g>
</svg>