<svg xmlns="http://www.w3.org/2000/svg" width="960" height="600" viewBox="0 0 960 600">
  <defs>
    <linearGradient id="bg" x1="0" y1="0" x2="1" y2="1"><stop offset="0" stop-color="#111827"/><stop offset="1" stop-color="#3b255f"/></linearGradient>
    <radialGradient id="glow" cx="72%" cy="48%" r="55%"><stop offset="0" stop-color="#8b5cf6" stop-opacity=".42"/><stop offset=".45" stop-color="#8b5cf6" stop-opacity=".12"/><stop offset="1" stop-color="#8b5cf6" stop-opacity="0"/></radialGradient>
    <filter id="blur"><feGaussianBlur stdDeviation="22"/></filter>
    <style>
      .label{font:700 18px Inter,'Noto Sans SC','Microsoft YaHei',Arial,sans-serif;letter-spacing:.12em;text-transform:uppercase;fill:#22d3ee}
      .title{font:800 48px Inter,'Noto Sans SC','Microsoft YaHei',Arial,sans-serif;fill:#fff}
      .sub{font:500 20px Inter,'Noto Sans SC','Microsoft YaHei',Arial,sans-serif;fill:rgba(255,255,255,.66)}
      .num{font:800 92px Inter,'Noto Sans SC','Microsoft YaHei',Arial,sans-serif;fill:rgba(255,255,255,.08)}
    </style>
  </defs>
  <rect width="960" height="600" fill="url(#bg)"/>
  <rect width="960" height="600" fill="url(#glow)"/>
  <circle cx="778" cy="98" r="170" fill="#8b5cf6" opacity=".14" filter="url(#blur)"/>
  <circle cx="98" cy="488" r="130" fill="#22d3ee" opacity=".08" filter="url(#blur)"/>
  <text x="60" y="112" class="label">Social Media</text>
  <text x="66" y="190" class="title">LinkedIn 社媒运营</text>
  <text x="66" y="390" class="sub">AI 建站 · SEO · 广告 · 内容 · 数据增长</text>
  <text x="62" y="540" class="num">38</text>
  <g opacity=".18" stroke="#22d3ee" stroke-width="1"><path d="M120 80v420"/><path d="M198 80v420"/><path d="M276 80v420"/><path d="M354 80v420"/><path d="M432 80v420"/><path d="M510 80v420"/><path d="M588 80v420"/><path d="M666 80v420"/><path d="M744 80v420"/><path d="M90 90h720"/><path d="M90 164h720"/><path d="M90 238h720"/><path d="M90 312h720"/><path d="M90 386h720"/><path d="M90 460h720"/></g><g transform="translate(492 122)"><circle cx="84" cy="112" r="56" fill="rgba(255,255,255,.08)" stroke="#22d3ee" stroke-width="3"/><circle cx="236" cy="88" r="48" fill="rgba(255,255,255,.08)" stroke="#22d3ee" stroke-width="3"/><circle cx="206" cy="238" r="62" fill="rgba(255,255,255,.08)" stroke="#22d3ee" stroke-width="3"/><path d="M128 106l60-12M110 154l52 52" stroke="#8b5cf6" stroke-width="8" stroke-linecap="round"/><path d="M72 82l58 32-58 32Z" fill="#8b5cf6"/><path d="M210 86h52M236 60v52" stroke="#22d3ee" stroke-width="8" stroke-linecap="round"/></g>
</svg>