<svg xmlns="http://www.w3.org/2000/svg" width="960" height="600" viewBox="0 0 960 600">
  <defs>
    <linearGradient id="bg" x1="0" y1="0" x2="1" y2="1"><stop offset="0" stop-color="#0b1324"/><stop offset="1" stop-color="#284b63"/></linearGradient>
    <radialGradient id="glow" cx="72%" cy="48%" r="55%"><stop offset="0" stop-color="#f43f5e" stop-opacity=".42"/><stop offset=".45" stop-color="#f43f5e" stop-opacity=".12"/><stop offset="1" stop-color="#f43f5e" stop-opacity="0"/></radialGradient>
    <filter id="blur"><feGaussianBlur stdDeviation="22"/></filter>
    <style>
      .label{font:700 18px Inter,'Noto Sans SC','Microsoft YaHei',Arial,sans-serif;letter-spacing:.12em;text-transform:uppercase;fill:#fbbf24}
      .title{font:800 48px Inter,'Noto Sans SC','Microsoft YaHei',Arial,sans-serif;fill:#fff}
      .sub{font:500 20px Inter,'Noto Sans SC','Microsoft YaHei',Arial,sans-serif;fill:rgba(255,255,255,.66)}
      .num{font:800 92px Inter,'Noto Sans SC','Microsoft YaHei',Arial,sans-serif;fill:rgba(255,255,255,.08)}
    </style>
  </defs>
  <rect width="960" height="600" fill="url(#bg)"/>
  <rect width="960" height="600" fill="url(#glow)"/>
  <circle cx="741" cy="141" r="170" fill="#f43f5e" opacity=".14" filter="url(#blur)"/>
  <circle cx="181" cy="491" r="130" fill="#fbbf24" opacity=".08" filter="url(#blur)"/>
  <text x="60" y="112" class="label">Ecommerce</text>
  <text x="66" y="190" class="title">跨境电商独立站</text>
  <text x="66" y="390" class="sub">AI 建站 · SEO · 广告 · 内容 · 数据增长</text>
  <text x="62" y="540" class="num">81</text>
  <g opacity=".18" stroke="#fbbf24" stroke-width="1"><path d="M120 80v420"/><path d="M198 80v420"/><path d="M276 80v420"/><path d="M354 80v420"/><path d="M432 80v420"/><path d="M510 80v420"/><path d="M588 80v420"/><path d="M666 80v420"/><path d="M744 80v420"/><path d="M90 90h720"/><path d="M90 164h720"/><path d="M90 238h720"/><path d="M90 312h720"/><path d="M90 386h720"/><path d="M90 460h720"/></g><g transform="translate(506 140)"><rect x="28" y="80" width="252" height="196" rx="24" fill="rgba(255,255,255,.08)" stroke="#fbbf24" stroke-width="3"/><path d="M82 80c0-50 28-78 72-78s72 28 72 78" fill="none" stroke="#f43f5e" stroke-width="12" stroke-linecap="round"/><rect x="68" y="122" width="172" height="32" rx="10" fill="#f43f5e" opacity=".75"/><rect x="68" y="178" width="112" height="24" rx="8" fill="#fbbf24" opacity=".35"/><rect x="68" y="224" width="148" height="24" rx="8" fill="#fbbf24" opacity=".22"/></g>
</svg>