<svg xmlns="http://www.w3.org/2000/svg" width="960" height="600" viewBox="0 0 960 600">
  <defs>
    <linearGradient id="bg" x1="0" y1="0" x2="1" y2="1"><stop offset="0" stop-color="#0b1324"/><stop offset="1" stop-color="#284b63"/></linearGradient>
    <radialGradient id="glow" cx="72%" cy="48%" r="55%"><stop offset="0" stop-color="#f43f5e" stop-opacity=".42"/><stop offset=".45" stop-color="#f43f5e" stop-opacity=".12"/><stop offset="1" stop-color="#f43f5e" stop-opacity="0"/></radialGradient>
    <filter id="blur"><feGaussianBlur stdDeviation="22"/></filter>
    <style>
      .label{font:700 18px Inter,'Noto Sans SC','Microsoft YaHei',Arial,sans-serif;letter-spacing:.12em;text-transform:uppercase;fill:#fbbf24}
      .title{font:800 48px Inter,'Noto Sans SC','Microsoft YaHei',Arial,sans-serif;fill:#fff}
      .sub{font:500 20px Inter,'Noto Sans SC','Microsoft YaHei',Arial,sans-serif;fill:rgba(255,255,255,.66)}
      .num{font:800 92px Inter,'Noto Sans SC','Microsoft YaHei',Arial,sans-serif;fill:rgba(255,255,255,.08)}
    </style>
  </defs>
  <rect width="960" height="600" fill="url(#bg)"/>
  <rect width="960" height="600" fill="url(#glow)"/>
  <circle cx="741" cy="61" r="170" fill="#f43f5e" opacity=".14" filter="url(#blur)"/>
  <circle cx="141" cy="531" r="130" fill="#fbbf24" opacity=".08" filter="url(#blur)"/>
  <text x="60" y="112" class="label">Industry Solution</text>
  <text x="66" y="190" class="title">电子电器外贸网站</text>
  <text x="66" y="390" class="sub">AI 建站 · SEO · 广告 · 内容 · 数据增长</text>
  <text x="62" y="540" class="num">01</text>
  <g opacity=".18" stroke="#fbbf24" stroke-width="1"><path d="M120 80v420"/><path d="M198 80v420"/><path d="M276 80v420"/><path d="M354 80v420"/><path d="M432 80v420"/><path d="M510 80v420"/><path d="M588 80v420"/><path d="M666 80v420"/><path d="M744 80v420"/><path d="M90 90h720"/><path d="M90 164h720"/><path d="M90 238h720"/><path d="M90 312h720"/><path d="M90 386h720"/><path d="M90 460h720"/></g><g transform="translate(486 154)"><path d="M20 236V92l92 54V88l94 58V86l90 58v92H20Z" fill="rgba(255,255,255,.08)" stroke="#fbbf24" stroke-width="3" stroke-linejoin="round"/><rect x="58" y="174" width="42" height="62" fill="#f43f5e" opacity=".75"/><rect x="128" y="174" width="42" height="62" fill="#fbbf24" opacity=".24"/><rect x="198" y="174" width="42" height="62" fill="#fbbf24" opacity=".24"/><path d="M20 268h300" stroke="#f43f5e" stroke-width="10" stroke-linecap="round"/></g>
</svg>